<svg height="512" viewBox="0 0 512 512" width="512" xmlns="http://www.w3.org/2000/svg"><g id="Filled_outline" data-name="Filled outline"><path d="m72 72h-48v344a24 24 0 0 0 24 24h408v-368z" fill="#348fd9"/><path d="m112 440h344v-336z" fill="#3086cd"/><path d="m72 392h-24a24 24 0 0 0 -24 24v-368a24 24 0 0 1 24-24h24z" fill="#60d1e0"/><path d="m200 72v192h8v32h8v32h16v-32h8v-32h8v-192z" fill="#3086cd"/><path d="m408 112h-288a8 8 0 0 0 -8 8v272a8 8 0 0 0 8 8h72v-39.2a40.071 40.071 0 0 1 32 39.2h184a8 8 0 0 0 8-8v-272a8 8 0 0 0 -8-8zm-8 16v16h-16v-16zm-24 80a56.092 56.092 0 0 0 -53.659 40h-42.341v-42.341a56.093 56.093 0 0 0 40-53.659 8 8 0 0 0 -8-8h-32v-16h88v24a8 8 0 0 0 8 8h24v88h-16v-32a8 8 0 0 0 -8-8zm-248-80h16v16h-16zm0 256v-16h16v16zm109.659 0a56.092 56.092 0 0 0 -53.659-40 8 8 0 0 0 -8 8v32h-16v-24a8 8 0 0 0 -8-8h-24v-192h24a8 8 0 0 0 8-8v-24h104v32h39.2a40.071 40.071 0 0 1 -39.2 32v104h39.2a40.071 40.071 0 0 1 -39.2 32v56zm42.341 0v-42.341a56.093 56.093 0 0 0 40-53.659 8 8 0 0 0 -8-8h-32v-16h56a40.071 40.071 0 0 1 32-39.2v39.2h32v120z" fill="#2d7dbf"/><path d="m96 112h224v48h-224z" fill="#92563a" transform="matrix(0 -1 1 0 72 344)"/><path d="m232 72v176h-48v-104z" fill="#875036"/><path d="m192 248h32v32h-32z" fill="#cfcfcd" transform="matrix(0 -1 1 0 -56 472)"/><path d="m200 280h16v32h-16z" fill="#b8b8b6"/><path d="m184 160h48v16h-48z" fill="#ffb531"/><path d="m240 488h248v-248zm200-48h-80l80-80z" fill="#ffb531"/><path d="m24 232v184a24 24 0 0 1 24-24h24v-210z" fill="#5ac6d4"/><path d="m488 356.93v131.07h-133.29l48.82-48h36.47v-35.87z" fill="#ffa912"/><path d="m448 240h16v-168a8 8 0 0 0 -8-8h-200v16h192z"/><path d="m48 448h200v-16h-200a16 16 0 0 1 0-32h24a8 8 0 0 0 8-8v-312h80v-16h-80v-40a8 8 0 0 0 -8-8h-24a32.036 32.036 0 0 0 -32 32v368a32.036 32.036 0 0 0 32 32zm-16-400a16.019 16.019 0 0 1 16-16h16v352h-16a31.808 31.808 0 0 0 -16 4.294z"/><path d="m160 384v-24a8 8 0 0 0 -8-8h-24v-192h24a8 8 0 0 0 8-8v-40h-40a8 8 0 0 0 -8 8v272a8 8 0 0 0 8 8h72v-39.2a40.071 40.071 0 0 1 32 39.2h72v-16h-16v-42.341a56.093 56.093 0 0 0 40-53.659 8 8 0 0 0 -8-8h-32v-16h56a40.071 40.071 0 0 1 32-39.2v39.2h32v24h16v-168a8 8 0 0 0 -8-8h-152v16h8v32h39.2a40.071 40.071 0 0 1 -39.2 32v104h39.2a40.071 40.071 0 0 1 -39.2 32v56h-26.341a56.092 56.092 0 0 0 -53.659-40 8 8 0 0 0 -8 8v32zm-32-256h16v16h-16zm0 256v-16h16v16zm272-256v16h-16v-16zm-80 24a8 8 0 0 0 -8-8h-32v-16h88v24a8 8 0 0 0 8 8h24v88h-16v-32a8 8 0 0 0 -8-8 56.092 56.092 0 0 0 -53.659 40h-42.341v-42.341a56.093 56.093 0 0 0 40-53.659z"/><path d="m184 256v24a8 8 0 0 0 8 8h8v24h16v-24h8a8 8 0 0 0 8-8v-24a8 8 0 0 0 8-8v-224a8 8 0 0 0 -8-8h-48a8 8 0 0 0 -8 8v224a8 8 0 0 0 8 8zm40-16h-32v-64h32zm-8 32h-16v-16h16zm8-240v128h-32v-128z"/><path d="m491.062 232.609a8 8 0 0 0 -8.719 1.734l-248 248a8 8 0 0 0 5.657 13.657h248a8 8 0 0 0 8-8v-248a8 8 0 0 0 -4.938-7.391zm-11.062 247.391h-220.687l220.687-220.687z"/><path d="m352.609 443.062a8 8 0 0 0 7.391 4.938h80a8 8 0 0 0 8-8v-80a8 8 0 0 0 -13.657-5.657l-80 80a8 8 0 0 0 -1.734 8.719zm79.391-63.749v52.687h-52.687z"/></g></svg>