<svg width="660" height="173" viewBox="0 0 660 173" fill="none" xmlns="http://www.w3.org/2000/svg">
<g clip-path="url(#clip0)">
<path fill-rule="evenodd" clip-rule="evenodd" d="M-0.827026 -174.675C219.702 -174.675 440.297 -174.675 660.827 -174.675C660.827 -166.008 660.827 159.541 660.827 168.208C659.19 168.04 658.189 167.201 656.278 167.541C654.564 167.846 652.641 169.765 649.662 168.874C648.534 168.537 648.88 167.846 647.181 167.541C643.137 171.822 632.469 171.17 625.263 169.874C620.862 169.083 618.815 171.671 615.338 170.874C613.565 170.468 613.047 168.652 611.203 169.208C608.848 169.698 608.76 170.777 605.414 170.874C605.099 170.562 601.987 168.295 601.692 168.208C599.555 167.576 596.265 168.866 594.662 167.874C594.029 167.483 593.022 165.755 592.594 165.208C589.833 166.538 581.954 168.347 576.88 167.208C574.995 166.784 573.963 164.53 571.09 165.208C570.677 165.541 570.263 165.874 569.85 166.208C566.818 166.208 563.784 166.208 560.752 166.208C558.805 166.667 555.053 167.816 553.308 168.208C551.241 167.986 549.173 167.763 547.105 167.541C543.765 168.434 543.975 170.795 538.008 170.874C536.191 168.868 534.639 169.924 530.978 169.208C530.781 169.169 530.165 168.485 529.737 168.541C528.687 168.678 528.055 169.944 526.015 169.541C523.984 169.14 522.689 167.252 521.053 166.874C519.02 166.406 516.129 167.654 514.023 166.541C512.962 165.98 511.914 164.309 510.714 163.874C509.336 163.763 507.957 163.652 506.579 163.541C506.028 163.096 505.476 162.652 504.925 162.207C503.181 161.825 502.92 162.973 502.03 163.207C499.962 163.207 497.895 163.207 495.827 163.207C494.824 163.455 493.905 164.5 492.105 164.207C490.057 163.875 489.333 162.334 487.97 161.874C485.902 161.985 483.835 162.096 481.767 162.207C481.227 162.1 479.662 161.277 479.286 161.207C477.221 160.827 473.934 162.177 472.669 162.541C470.74 162.541 468.809 162.541 466.88 162.541C464.081 163.208 460.196 163.265 457.368 163.874C454.887 163.985 452.406 164.096 449.925 164.207C448.208 164.748 445.513 166.16 443.722 166.541C439.928 167.348 432.095 163.525 429.248 163.874C422.176 164.741 416.681 167.669 410.226 168.541C406.444 169.052 403.026 166.735 398.647 167.874C396.335 168.476 395.596 169.486 392.03 169.541C391.962 169.468 380.18 163.575 380.038 163.541C377.907 163.029 372.056 164.296 368.872 163.874C367.43 163.683 367.908 162.52 365.978 162.874C365.564 163.207 365.15 163.541 364.737 163.874C361.429 163.874 358.12 163.874 354.812 163.874C354.399 164.319 353.985 164.763 353.571 165.208C351.386 166.289 347.887 165.71 345.714 165.208C343.509 165.208 341.303 165.208 339.098 165.208C336.742 164.606 327.79 162.066 325.865 164.541C324.893 165.559 325.105 166.82 324.624 167.541C324.136 167.808 323.929 167.799 322.97 167.874C321.15 166.46 316.437 169.066 314.699 168.541C313.483 168.173 313.42 167.28 310.978 167.208C310.978 167.43 310.978 167.652 310.978 167.874C311.288 168.232 311.226 168.19 311.391 168.874C310.544 169.112 309.458 169.206 308.083 169.208C307.609 168.722 307.255 168.474 306.842 167.874C303.813 169.802 293.278 172.793 286.993 171.208C285.652 170.87 285.6 169.438 283.271 169.874C282.995 170.096 282.719 170.319 282.444 170.541C278.998 170.43 275.551 170.319 272.105 170.208C270.861 170.614 267.501 172.525 264.662 171.875C264.248 171.541 263.835 171.208 263.421 170.874C261.353 170.763 259.286 170.652 257.218 170.541C256.805 170.208 256.391 169.874 255.978 169.541C253.756 168.844 251.692 169.53 249.774 168.874C248.416 168.41 247.607 167.222 246.053 166.874C242.607 166.763 239.16 166.652 235.714 166.541C234.928 166.352 234.174 165.384 233.647 165.208C231.304 165.208 228.96 165.208 226.617 165.208C225.34 166.516 221.178 168.694 219.173 169.208C215.038 169.096 210.902 168.986 206.767 168.874C206.492 169.208 206.215 169.541 205.94 169.874C201.098 171.641 193.98 167.678 191.053 166.541C188.951 165.724 188.026 167.572 186.09 167.208C183.329 166.689 179.962 164.762 176.579 164.541C173.568 167.926 169.494 164.706 165.414 164.207C161.363 163.713 158.552 167.388 153.835 165.874C151.658 165.176 148.538 162.934 144.323 163.874C141.715 164.456 139.136 166.618 136.466 167.208C134.055 167.74 131.606 166.532 129.85 166.208C125.179 165.346 122.875 167.972 119.098 167.208C117.409 166.866 116.385 165.662 114.962 165.208C112.824 164.524 111.152 164.726 109.173 163.874C108.621 163.429 108.071 162.985 107.519 162.541C104.211 162.541 100.902 162.541 97.594 162.541C96.9423 162.363 96.1789 161.384 95.5264 161.207C93.634 160.695 82.4653 160.729 81.0527 161.207C79.9916 161.567 77.9752 162.887 76.5038 163.207C74.3485 163.677 73.5983 162.647 71.5414 162.541C70.7267 163.598 69.6582 164.33 68.6467 165.208C64.0631 165.243 59.7921 164.796 56.2406 164.541C55.3681 165.686 54.8437 166.145 52.5188 166.208C51.681 165.501 51.3022 165.324 49.6241 165.208C48.8086 166.157 48.3785 166.212 46.3158 166.208C44.6675 164.896 43.3028 165.868 40.5264 165.208C38.9938 164.844 34.5615 161.877 32.2557 162.541C31.7148 162.696 30.5867 163.781 29.7745 163.874C27.6828 164.113 26.6143 161.496 23.985 162.541C20.7694 163.818 18.4321 166.31 14.0602 166.541C8.50064 162.554 3.48448 167.236 -0.827026 167.874C-0.827026 159.319 -0.827026 -166.12 -0.827026 -174.675Z" fill="#384C4A"/>
</g>
<defs>
<clipPath id="clip0">
<rect width="660" height="172.008" fill="white"/>
</clipPath>
</defs>
</svg>
