<svg height="512" viewBox="0 0 64 64" width="512" xmlns="http://www.w3.org/2000/svg"><path d="m40.69 41.13a10.032 10.032 0 0 0 -2.71-1.32l-3.98-1.25v7.44a4 4 0 0 1 -4 4h-10a4 4 0 0 1 -4-4v-7.44l-3.98 1.25a9.989 9.989 0 0 0 -7.02 9.54v11.65h40v-11.65a9.991 9.991 0 0 0 -4.31-8.22z" fill="#3d9ae2"/><path d="m36 17a2 2 0 1 1 -1 3.73v-3.46a2 2 0 0 1 1-.27z" fill="#ffb655"/><path d="m35 16.75v6.25a10 10 0 0 1 -20 0v-6.25a1.549 1.549 0 0 0 .48-.02l8.09-1.47a8.083 8.083 0 0 1 2.86 0l8.09 1.47a1.549 1.549 0 0 0 .48.02z" fill="#ffc477"/><path d="m34 38.56v7.44a4 4 0 0 1 -4 4h-10a4 4 0 0 1 -4-4v-7.44l2.79-.87 1.21 6.31 5-3 5 3 1.21-6.31z" fill="#5aaae7"/><path d="m31.21 37.69-1.21 6.31-5-3 4-4z" fill="#e6e7e8"/><path d="m29 32.16v4.84l-4 4-4-4v-4.84a9.944 9.944 0 0 0 8 0z" fill="#ffc477"/><path d="m25 41-5 3-1.21-6.31 2.21-.69z" fill="#e6e7e8"/><path d="m15 17.27v3.46a2 2 0 1 1 0-3.46z" fill="#ffb655"/><path d="m35 16.75v2a1.549 1.549 0 0 1 -.48-.02l-8.09-1.47a8.083 8.083 0 0 0 -2.86 0l-8.09 1.47a1.549 1.549 0 0 1 -.48.02v-2a1.549 1.549 0 0 0 .48-.02l8.09-1.47a8.083 8.083 0 0 1 2.86 0l8.09 1.47a1.549 1.549 0 0 0 .48.02z" fill="#ffb655"/><path d="m35 6.64v5.9l-4.76-.74 1.49-7.45 1.66.33a2 2 0 0 1 1.61 1.96z" fill="#1e81ce"/><path d="m31.73 4.35-1.49 7.45-3.72-.57a10.325 10.325 0 0 0 -3.04 0l-3.72.57-1.49-7.45 5.16-1.04a8.291 8.291 0 0 1 3.14 0z" fill="#5aaae7"/><path d="m18.27 4.35 1.49 7.45-4.76.74v-5.9a2 2 0 0 1 1.61-1.96z" fill="#1e81ce"/><path d="m35.29 12.58-.29-.04-4.76-.74-3.72-.57a10.325 10.325 0 0 0 -3.04 0l-3.72.57-4.76.74-.29.04a2 2 0 0 0 -1.48 2.87l.1.21a2.013 2.013 0 0 0 1.67 1.09 1.549 1.549 0 0 0 .48-.02l8.09-1.47a8.083 8.083 0 0 1 2.86 0l8.09 1.47a1.549 1.549 0 0 0 .48.02 2.013 2.013 0 0 0 1.67-1.09l.1-.21a2 2 0 0 0 -1.48-2.87z" fill="#3d9ae2"/><path d="m29 32.16v2a9.944 9.944 0 0 1 -8 0v-2a9.944 9.944 0 0 0 8 0z" fill="#ffb655"/><path d="m37 49h2v12h-2z" fill="#1e81ce"/><path d="m19 19h2v2h-2z" fill="#ee8700"/><path d="m29 19h2v2h-2z" fill="#ee8700"/><path d="m11 49h2v12h-2z" fill="#1e81ce"/><path d="m25 29a4 4 0 0 1 -4-4h2a2 2 0 0 0 4 0h2a4 4 0 0 1 -4 4z" fill="#ee8700"/><path d="m56.59 12.71-1.53 5.72-4.38.9-3.35-2.97 1.53-5.72a7.99 7.99 0 0 0 -3.58 13.37l-4.59 17.12-.11.42a7.99 7.99 0 0 0 -3.58 13.37l1-3.74.53-1.98 4.38-.89 2.09 1.85 1.26 1.11-1.26 4.71-.27 1.01a2.759 2.759 0 0 0 .27-.08 7.988 7.988 0 0 0 3.31-13.29l4.7-17.54a7.99 7.99 0 0 0 3.58-13.37z" fill="#ff9811"/></svg>