<svg id="Capa_1" enable-background="new 0 0 512.01 512.01" height="512" viewBox="0 0 512.01 512.01" width="512" xmlns="http://www.w3.org/2000/svg"><g><g><g><path d="m77.392 340.275c-16.363 2.703-32.172 10.312-44.755 22.895-32.383 32.383-32.103 85.061.842 117.093 31.218 30.353 81.482 30.903 113.32 1.2 13.769-12.846 22.066-29.428 24.957-46.605 2.459-14.606.695-42.957 21.962-64.225l29.287-29.287 119.04-119.04 37.294-37.294c12.19-12.19 29.825-16.747 46.609-12.807 20.838 4.892 42.47-4.23 53.506-22.601l19.219-31.993c5.819-9.687 6.334-21.662 1.368-31.813-5.909-5.909-15.579-5.909-21.489 0l-32.718 32.718c-2.739 2.739-6.414 4.339-10.285 4.479l-9.454.341c-4.254.153-8.38-1.469-11.39-4.479l-20.554-20.554c-2.793-2.793-4.4-6.556-4.485-10.505l-.233-10.758c-.091-4.179 1.53-8.214 4.485-11.169l32.353-32.353c5.909-5.909 5.909-15.579 0-21.489-10.151-4.966-22.126-4.451-31.813 1.368l-31.993 19.219c-18.52 11.125-27.497 32.981-22.484 53.996 3.972 16.651-.98 34.175-13.089 46.285l-37.129 37.129-119.04 119.04-29.287 29.287c-21.283 21.283-49.583 19.533-64.044 21.922zm-7.306 45.411c2.685-2.685 6.326-4.193 10.122-4.193h21.119c3.797 0 7.438 1.508 10.122 4.193l14.933 14.933c2.685 2.685 4.193 6.326 4.193 10.122v21.119c0 3.797-1.508 7.438-4.193 10.122l-14.933 14.933c-2.685 2.685-6.326 4.193-10.122 4.193h-21.119c-3.797 0-7.438-1.508-10.122-4.193l-14.933-14.933c-2.685-2.685-4.193-6.326-4.193-10.122v-21.119c0-3.797 1.508-7.438 4.193-10.122z" fill="#daeaef"/><g><path d="m500.041 85.798c-5.909-5.909-15.579-5.909-21.489 0l-32.718 32.718c-2.739 2.739-6.414 4.339-10.285 4.479l-9.454.341c-4.254.154-8.38-1.469-11.39-4.479l-4.617-4.617c-10.724 6.38-23.741 8.627-36.467 5.64-16.511-3.876-33.834.489-45.999 12.237-.247.258-.478.527-.731.78l-37.129 37.129-119.04 119.04-29.287 29.287c-.339.339-.684.655-1.027.983-20.213 21.146-18.56 48.825-20.98 63.198-.513 3.05-1.206 6.079-2.06 9.074l9.013 9.013c2.685 2.685 4.193 6.326 4.193 10.122v21.119c0 3.797-1.508 7.438-4.193 10.122l-14.933 14.933c-2.685 2.685-6.326 4.193-10.122 4.193h-21.119c-3.797 0-7.438-1.508-10.122-4.193l-8.996-8.996c-15.833 4.478-32.766 4.139-48.425-.977 4.003 12.226 10.925 23.705 20.813 33.319 31.218 30.354 81.482 30.903 113.32 1.2 13.769-12.846 22.066-29.428 24.957-46.605 2.459-14.606.695-42.957 21.962-64.225l29.287-29.287 119.04-119.04 37.294-37.294c12.19-12.19 29.825-16.747 46.609-12.808 20.838 4.892 42.471-4.23 53.506-22.601l19.219-31.993c5.821-9.686 6.336-21.662 1.37-31.812z" fill="#c7e0e5"/></g></g><g><g><g><g><path d="m496.851 464.684-27.385 27.385c-10.528 10.528-27.698 10.192-37.806-.741l-316.735-342.582 38.604-38.604 342.582 316.735c10.932 10.108 11.268 27.279.74 37.807z" fill="#a6ced3"/></g></g><path d="m318.622 369.066-21.436-23.186 53.477-53.476 23.185 21.436z" fill="#daeaef"/><g><path d="m318.622 369.066 55.226-55.226 122.262 113.038c10.932 10.108 11.269 27.278.741 37.806l-27.385 27.385c-10.528 10.528-27.698 10.192-37.806-.741z" fill="#f9bc66"/></g></g><g><path d="m50.606 140.164h59.863v56.892h-59.863z" fill="#a6ced3" transform="matrix(.707 -.707 .707 .707 -95.636 106.333)"/><path d="m133.875 47.788-66.308 66.308c-5.071 5.071-5.071 13.292 0 18.362l51.202 51.202c4.838 4.838 12.682 4.838 17.52 0l52.419-52.419c8.953-8.953 12.377-21.915 9.442-34.232-10.227-42.913 34.094-54.475 55.285-57.532 4.206-.607 5.699-5.925 2.4-8.604-36.775-29.866-81.614-23.431-121.96 16.915z" fill="#daeaef"/><g><path d="m255.835 30.874c-29.017-23.566-63.054-24.512-95.944-4.05l28.554 27.318c4.703 4.499 8.572 9.54 11.626 14.924 9.727-20.5 37.791-27.341 53.364-29.588 4.206-.608 5.699-5.925 2.4-8.604z" fill="#c7e0e5"/></g><path d="m27.27 154.393-16.05 16.05c-5.017 5.017-5.017 13.152 0 18.169l50.974 50.974c5.017 5.017 13.152 5.017 18.169 0l16.05-16.05c5.017-5.017 5.017-13.152 0-18.169l-50.974-50.974c-5.017-5.017-13.152-5.017-18.169 0z" fill="#c7e0e5"/></g></g></g><g><path d="m501.179 421.396-207.813-192.134 64.75-64.75c2.916-2.916 2.916-7.643 0-10.559-2.915-2.914-7.643-2.914-10.558 0l-65.164 65.164-88.853-82.149.447-.447c10.748-10.747 15.018-26.164 11.425-41.241-2.555-10.723-1.404-19.457 3.518-26.703 9.92-14.6 32.809-19.869 45.57-21.71 4.859-.701 8.843-4.21 10.149-8.942 1.303-4.719-.31-9.761-4.109-12.847-39.568-32.134-88.894-25.619-131.946 17.43l-66.308 66.308c-7.692 7.692-7.941 20.025-.791 28.046l-11.551 11.551c-8.07-7.298-20.328-6.928-27.955.7l-16.05 16.05c-7.921 7.921-7.921 20.808 0 28.729l50.974 50.973c7.921 7.92 20.808 7.919 28.728 0l16.05-16.05c7.939-7.939 7.94-20.789 0-28.729l-.923-.923 11.472-11.472 1.248 1.248c7.74 7.739 20.337 7.74 28.078 0l.182-.182 82.149 88.853-60.368 60.368c-2.916 2.916-2.916 7.643 0 10.559 2.917 2.916 7.643 2.915 10.558 0l59.954-59.954 192.134 207.812c12.984 14.043 35.031 14.487 48.567.952l27.385-27.385c13.516-13.512 13.135-35.546-.949-48.566zm-193.638-75.313 43.324-43.324 12.213 11.292-44.245 44.246zm-216.407-127.826-16.05 16.05c-2.099 2.1-5.512 2.1-7.611 0l-50.974-50.973c-2.098-2.098-2.098-5.512 0-7.61l16.05-16.05c0-.001 0-.001 0-.001 2.102-2.103 5.506-2.105 7.61.001l4.542 4.542 46.431 46.43c2.105 2.101 2.106 5.508.002 7.611zm-.923-29.651-29.67-29.669 11.473-11.473 29.669 29.67zm33.837-10.225c-10.86-10.86-38.84-38.84-51.202-51.203-2.151-2.151-2.151-5.651 0-7.802l66.308-66.308c35.891-35.89 74.665-42.995 107.247-19.984-15.624 2.961-38.261 10.089-49.82 27.101-7.31 10.76-9.225 23.732-5.693 38.556 2.382 9.993-.406 20.169-7.458 27.22-16.208 16.208-36.182 36.182-52.42 52.42-1.919 1.919-5.043 1.919-6.962 0zm58.926-30.847 156.918 145.08-42.496 42.496-145.079-156.918zm308.598 311.87-27.385 27.386c-7.627 7.625-19.879 7.22-27.045-.531l-108.164-116.99 45.073-45.073 116.991 108.164c7.815 7.225 8.082 19.491.53 27.044z"/><path d="m229.365 324.427-40.926 40.926c-37.315 37.315-7.062 73.642-46.733 110.65-29.122 27.171-74.798 26.348-103.022-1.093-29.914-29.084-30.299-76.929-.768-106.46 36.616-36.616 72.516-8.535 108.801-44.819l43.047-43.047c2.916-2.916 2.916-7.643 0-10.559-2.915-2.914-7.643-2.914-10.558 0l-43.047 43.048c-30.857 30.857-68.059 4.078-108.8 44.818-35.4 35.402-35.003 92.802.917 127.725 34.057 33.114 88.836 33.754 123.617 1.307 43.567-40.647 15.927-79.833 47.106-111.01l40.926-40.926c2.916-2.916 2.916-7.643 0-10.559-2.917-2.916-7.645-2.916-10.56-.001z"/><path d="m101.327 374.027h-21.118c-5.817 0-11.287 2.265-15.402 6.379l-14.933 14.934c-4.114 4.114-6.38 9.584-6.38 15.402v21.118c-.001 5.819 2.265 11.29 6.379 15.404l14.933 14.932c4.114 4.114 9.583 6.38 15.402 6.38h21.119c5.818 0 11.288-2.266 15.401-6.379l14.933-14.933c4.114-4.114 6.38-9.584 6.38-15.403v-21.118c0-5.817-2.266-11.288-6.38-15.403l-14.934-14.933c-4.113-4.115-9.582-6.38-15.4-6.38zm21.783 36.715v21.118c0 1.83-.712 3.55-2.006 4.843l-14.934 14.934c-1.293 1.293-3.013 2.006-4.842 2.006h-21.119c-1.83 0-3.549-.713-4.843-2.007l-14.934-14.933c-1.293-1.293-2.005-3.013-2.005-4.843v-21.119c0-1.83.713-3.549 2.006-4.842l14.933-14.933c1.294-1.294 3.015-2.007 4.844-2.007h21.118c1.829 0 3.549.713 4.843 2.007l14.933 14.932c1.294 1.294 2.006 3.015 2.006 4.844z"/><path d="m285.282 185.065 46.89-46.889c13.838-13.838 19.613-34.26 15.073-53.297-4.295-18.001 3.367-36.432 19.066-45.863l31.993-19.219c7.149-4.294 15.807-4.878 23.424-1.639 2.253 3.024 2.008 7.337-.735 10.08l-32.353 32.352c-9.567 9.568-5.865 20.99-6.437 27.368.128 5.902 2.496 11.45 6.67 15.624l20.554 20.554c4.46 4.46 10.631 6.892 16.938 6.66 5.786-.816 15.959 1.786 24.748-7.001l32.718-32.718c2.774-2.775 7.126-2.932 10.081-.735 3.239 7.616 2.656 16.273-1.64 23.423l-19.219 31.993c-9.395 15.64-27.641 23.347-45.4 19.177-19.676-4.62-39.712.913-53.595 14.796l-44.567 44.568c-2.915 2.915-2.915 7.643 0 10.558 2.917 2.915 7.642 2.916 10.559-.001l44.566-44.566c10.203-10.203 25.015-14.25 39.624-10.818 24.102 5.655 48.862-4.8 61.613-26.024l19.219-31.993c10.582-17.615 4.221-36.963.248-40.936-8.832-8.833-23.214-8.833-32.048-.001l-32.718 32.718c-3.417 3.416-7.215 1.945-14.729 2.638-2.187.069-4.303-.759-5.841-2.297-19.362-20.292-22.737-20.508-22.855-25.942.319-8.53-1.669-12.749 2.067-16.486l32.353-32.354c11.55-11.551 5.924-29.594-1.999-33.475-12.478-6.104-27.033-5.478-38.939 1.676l-31.993 19.219c-21.305 12.798-31.714 37.765-25.901 62.127 3.347 14.028-.909 29.077-11.106 39.274l-46.89 46.89c-2.916 2.915-2.916 7.643 0 10.558 2.918 2.916 7.646 2.917 10.561.001z"/></g></g></svg>